<svg xmlns="http://www.w3.org/2000/svg" width="16.5" height="18" viewBox="0 0 16.5 18">
  <g id="bell" transform="translate(0 0)">
    <path id="Path_72" data-name="Path 72" d="M358.088,23.594a.75.75,0,0,1-.75-.75,7.825,7.825,0,0,0-2.306-5.569.75.75,0,1,1,1.06-1.06,9.313,9.313,0,0,1,2.746,6.629.75.75,0,0,1-.75.75Zm0,0" transform="translate(-342.338 -15.432)" fill="#ba9e60"/>
    <path id="Path_73" data-name="Path 73" d="M.75,23.594a.75.75,0,0,1-.75-.75,9.314,9.314,0,0,1,2.746-6.629.75.75,0,0,1,1.06,1.06A7.824,7.824,0,0,0,1.5,22.844a.75.75,0,0,1-.75.75Zm0,0" transform="translate(0 -15.432)" fill="#ba9e60"/>
    <path id="Path_74" data-name="Path 74" d="M35.867,12.685a5.023,5.023,0,0,1-1.784-3.844V6.75a5.254,5.254,0,0,0-4.5-5.19V.75a.75.75,0,0,0-1.5,0v.81a5.254,5.254,0,0,0-4.5,5.19V8.841a5.029,5.029,0,0,1-1.791,3.85A1.312,1.312,0,0,0,22.645,15H35.02a1.312,1.312,0,0,0,.847-2.315Zm0,0" transform="translate(-20.582)" fill="#ba9e60"/>
    <path id="Path_75" data-name="Path 75" d="M159.044,450.25A2.817,2.817,0,0,0,161.8,448h-5.511a2.817,2.817,0,0,0,2.756,2.25Zm0,0" transform="translate(-150.794 -432.25)" fill="#ba9e60"/>
  </g>
</svg>
