<svg xmlns="http://www.w3.org/2000/svg" xmlns:xlink="http://www.w3.org/1999/xlink" width="58" height="58" viewBox="0 0 58 58">
  <defs>
    <filter id="Rectangle_179" x="0" y="0" width="58" height="58" filterUnits="userSpaceOnUse">
      <feOffset dy="3" input="SourceAlpha"/>
      <feGaussianBlur stdDeviation="3" result="blur"/>
      <feFlood flood-opacity="0.271"/>
      <feComposite operator="in" in2="blur"/>
      <feComposite in="SourceGraphic"/>
    </filter>
  </defs>
  <g id="Group_83" data-name="Group 83" transform="translate(-752 -422)">
    <g transform="matrix(1, 0, 0, 1, 752, 422)" filter="url(#Rectangle_179)">
      <g id="Rectangle_179-2" data-name="Rectangle 179" transform="translate(9 6)" fill="#fff" stroke="#fff" stroke-width="1">
        <rect width="40" height="40" rx="8" stroke="none"/>
        <rect x="0.5" y="0.5" width="39" height="39" rx="7.5" fill="none"/>
      </g>
    </g>
    <g id="calendar_2_" data-name="calendar (2)" transform="translate(771 438)">
      <g id="Group_3" data-name="Group 3" transform="translate(0)">
        <g id="Group_2" data-name="Group 2" transform="translate(0)">
          <path id="Path_4" data-name="Path 4" d="M279,280.9a1.793,1.793,0,0,0,1.791,1.791h2.1a1.793,1.793,0,0,0,1.791-1.791v-2.1A1.793,1.793,0,0,0,282.9,277h-2.1A1.793,1.793,0,0,0,279,278.791Zm1.791-2.1h2.1v2.1h-2.105Z" transform="translate(-268.627 -266.701)" fill="#ba9e60"/>
          <circle id="Ellipse_1" data-name="Ellipse 1" cx="0.833" cy="0.833" r="0.833" transform="translate(14.375 7.187)" fill="#ba9e60"/>
          <circle id="Ellipse_2" data-name="Ellipse 2" cx="0.833" cy="0.833" r="0.833" transform="translate(10.781 7.187)" fill="#ba9e60"/>
          <path id="Path_5" data-name="Path 5" d="M19.219,13.75A.781.781,0,0,0,20,12.969V4.688a3.129,3.129,0,0,0-3.125-3.125H15.859V.781a.781.781,0,1,0-1.562,0v.781H10.742V.781a.781.781,0,1,0-1.563,0v.781H5.664V.781A.781.781,0,1,0,4.1.781v.781H3.125A3.129,3.129,0,0,0,0,4.688V16.875A3.129,3.129,0,0,0,3.125,20h13.75A3.129,3.129,0,0,0,20,16.875a.781.781,0,1,0-1.562,0,1.564,1.564,0,0,1-1.563,1.563H3.125a1.564,1.564,0,0,1-1.562-1.563V4.688A1.564,1.564,0,0,1,3.125,3.125H4.1v.781a.781.781,0,1,0,1.563,0V3.125H9.18v.781a.781.781,0,1,0,1.563,0V3.125H14.3v.781a.781.781,0,1,0,1.562,0V3.125h1.016a1.564,1.564,0,0,1,1.563,1.563v8.281A.781.781,0,0,0,19.219,13.75Z" transform="translate(0)" fill="#ba9e60"/>
          <circle id="Ellipse_3" data-name="Ellipse 3" cx="0.833" cy="0.833" r="0.833" transform="translate(4.312 14.375)" fill="#ba9e60"/>
          <circle id="Ellipse_4" data-name="Ellipse 4" cx="0.833" cy="0.833" r="0.833" transform="translate(4.312 7.187)" fill="#ba9e60"/>
          <circle id="Ellipse_5" data-name="Ellipse 5" cx="0.833" cy="0.833" r="0.833" transform="translate(4.312 10.781)" fill="#ba9e60"/>
          <circle id="Ellipse_6" data-name="Ellipse 6" cx="0.833" cy="0.833" r="0.833" transform="translate(7.187 10.781)" fill="#ba9e60"/>
          <circle id="Ellipse_7" data-name="Ellipse 7" cx="0.833" cy="0.833" r="0.833" transform="translate(7.187 7.187)" fill="#ba9e60"/>
          <circle id="Ellipse_8" data-name="Ellipse 8" cx="0.833" cy="0.833" r="0.833" transform="translate(7.187 14.375)" fill="#ba9e60"/>
        </g>
      </g>
    </g>
  </g>
</svg>
