<svg xmlns="http://www.w3.org/2000/svg" xmlns:xlink="http://www.w3.org/1999/xlink" width="58" height="58" viewBox="0 0 58 58">
  <defs>
    <filter id="Rectangle_180" x="0" y="0" width="58" height="58" filterUnits="userSpaceOnUse">
      <feOffset dy="3" input="SourceAlpha"/>
      <feGaussianBlur stdDeviation="3" result="blur"/>
      <feFlood flood-opacity="0.271"/>
      <feComposite operator="in" in2="blur"/>
      <feComposite in="SourceGraphic"/>
    </filter>
  </defs>
  <g id="Group_84" data-name="Group 84" transform="translate(-503.25 -423)">
    <g transform="matrix(1, 0, 0, 1, 503.25, 423)" filter="url(#Rectangle_180)">
      <g id="Rectangle_180-2" data-name="Rectangle 180" transform="translate(9 6)" fill="#fff" stroke="#fff" stroke-width="1">
        <rect width="40" height="40" rx="8" stroke="none"/>
        <rect x="0.5" y="0.5" width="39" height="39" rx="7.5" fill="none"/>
      </g>
    </g>
    <g id="clock" transform="translate(503.249 439)">
      <g id="Group_5" data-name="Group 5" transform="translate(20.001)">
        <g id="Group_4" data-name="Group 4" transform="translate(0)">
          <path id="Path_6" data-name="Path 6" d="M33.828,16.839a.778.778,0,0,0,.5-.181l2.121-1.769a.781.781,0,1,0-1-1.2l-2.121,1.769a.781.781,0,0,0,.5,1.381Z" transform="translate(-32.537 -12.98)" fill="#ba9e60"/>
          <path id="Path_7" data-name="Path 7" d="M384.928,14.891l2.121,1.769a.781.781,0,1,0,1-1.2l-2.121-1.769a.781.781,0,0,0-1,1.2Z" transform="translate(-370.403 -12.982)" fill="#ba9e60"/>
          <path id="Path_8" data-name="Path 8" d="M35.738,4.263a9.15,9.15,0,0,0-5.776-2.67V.781a.781.781,0,0,0-1.563,0V1.6a9.219,9.219,0,0,0-5.7,15.7q.242.242.5.464l-.628,1.055a.781.781,0,1,0,1.343.8l.555-.932a9.237,9.237,0,0,0,9.5,0l.556.934a.781.781,0,1,0,1.343-.8l-.977-1.64a.781.781,0,0,0-1.135-.229,7.646,7.646,0,1,1,2.176-2.482.781.781,0,0,0,1.369.753A9.224,9.224,0,0,0,35.738,4.263Z" transform="translate(-20.001)" fill="#ba9e60"/>
          <path id="Path_9" data-name="Path 9" d="M235.781,129a.781.781,0,0,0-.781.781v4.961a.781.781,0,0,0,.229.552l2.21,2.21a.781.781,0,1,0,1.1-1.1l-1.981-1.981V129.78A.781.781,0,0,0,235.781,129Z" transform="translate(-226.602 -123.96)" fill="#ba9e60"/>
        </g>
      </g>
    </g>
  </g>
</svg>
