<svg xmlns="http://www.w3.org/2000/svg" width="18" height="12.305" viewBox="0 0 18 12.305">
  <g id="email" transform="translate(0 -81)">
    <g id="Group_70" data-name="Group 70" transform="translate(0 81)">
      <path id="Path_76" data-name="Path 76" d="M16.418,81H1.582A1.582,1.582,0,0,0,0,82.582v9.141A1.582,1.582,0,0,0,1.582,93.3H16.418A1.582,1.582,0,0,0,18,91.723V82.582A1.582,1.582,0,0,0,16.418,81Zm-1.266,9.049a.527.527,0,0,1-.743-.06L11.365,86.41l-2.1,1.2a.527.527,0,0,1-.523,0l-2.1-1.2L3.591,89.989a.527.527,0,1,1-.8-.683L5.7,85.878,3.114,84.4a.527.527,0,1,1,.523-.916L9,86.545l5.364-3.06a.527.527,0,1,1,.523.916L12.3,85.878l2.915,3.427A.527.527,0,0,1,15.152,90.049Z" transform="translate(0 -81)" fill="#ba9e60"/>
    </g>
  </g>
</svg>
