<svg xmlns="http://www.w3.org/2000/svg" xmlns:xlink="http://www.w3.org/1999/xlink" width="58" height="58" viewBox="0 0 58 58">
  <defs>
    <filter id="Rectangle_178" x="0" y="0" width="58" height="58" filterUnits="userSpaceOnUse">
      <feOffset dy="3" input="SourceAlpha"/>
      <feGaussianBlur stdDeviation="3" result="blur"/>
      <feFlood flood-opacity="0.271"/>
      <feComposite operator="in" in2="blur"/>
      <feComposite in="SourceGraphic"/>
    </filter>
  </defs>
  <g id="Group_85" data-name="Group 85" transform="translate(-752.25 -498)">
    <g transform="matrix(1, 0, 0, 1, 752.25, 498)" filter="url(#Rectangle_178)">
      <g id="Rectangle_178-2" data-name="Rectangle 178" transform="translate(9 6)" fill="#fff" stroke="#fff" stroke-width="1">
        <rect width="40" height="40" rx="8" stroke="none"/>
        <rect x="0.5" y="0.5" width="39" height="39" rx="7.5" fill="none"/>
      </g>
    </g>
    <g id="pin" transform="translate(695.25 510)">
      <g id="Group_29" data-name="Group 29" transform="translate(76)">
        <g id="Group_28" data-name="Group 28">
          <path id="Path_58" data-name="Path 58" d="M86,0a10,10,0,0,0-8.507,15.258l7.938,12.792a.833.833,0,0,0,.708.394h.007a.833.833,0,0,0,.708-.405L94.59,15.123A10,10,0,0,0,86,0Zm7.159,14.268L86.126,26.01,78.909,14.38a8.339,8.339,0,1,1,14.25-.113Z" transform="translate(-76)" fill="#ba9e60"/>
        </g>
      </g>
      <g id="Group_31" data-name="Group 31" transform="translate(81 5)">
        <g id="Group_30" data-name="Group 30">
          <path id="Path_59" data-name="Path 59" d="M171,90a5,5,0,1,0,5,5A5.006,5.006,0,0,0,171,90Zm0,8.344A3.344,3.344,0,1,1,174.339,95,3.347,3.347,0,0,1,171,98.344Z" transform="translate(-166 -90)" fill="#ba9e60"/>
        </g>
      </g>
    </g>
  </g>
</svg>
